<svg width="391" height="134" viewBox="0 0 391 134" fill="none" xmlns="http://www.w3.org/2000/svg">
<path fill-rule="evenodd" clip-rule="evenodd" d="M22.7312 25.7837C15.9506 27.0107 11.4948 29.2709 7.10351 33.7267C4.32668 36.5681 2.38934 39.797 1.22695 43.4779C0.193708 46.7713 0 48.0629 0 52.2604C0 56.6517 0.387464 58.9765 1.61443 62.5282C3.55176 68.0173 7.36181 73.1189 11.8177 76.2832C21.8917 83.3222 33.774 83.193 46.8186 75.8312C52.4368 72.6669 57.0218 69.438 73.6182 57.0391C90.7312 44.2528 97.5118 40.0553 104.034 38.2471C105.584 37.7951 106.359 37.7305 109.265 37.7305C113.333 37.7305 114.819 38.118 117.337 39.7324C123.924 43.9945 126.12 52.9062 122.374 60.3326C120.179 64.7239 116.239 67.8882 111.525 69.0505C109.329 69.6317 104.551 69.5671 101.968 68.986C96.8015 67.8236 90.8604 64.853 84.1443 60.0097L81.8195 58.3307L79.7531 59.8806C78.5907 60.7201 76.7825 62.0762 75.7493 62.8511C74.6514 63.626 73.7474 64.2718 73.6828 64.3364C73.5536 64.401 73.8765 64.7238 76.2659 66.532C77.17 67.1778 78.4615 68.1464 79.1073 68.6631C79.7531 69.1797 81.7549 70.5358 83.5631 71.7628C91.5707 77.1227 97.189 79.7704 103.001 80.9974C106.23 81.6431 111.525 81.7077 114.56 80.9974C124.247 78.9309 132.125 71.7628 135.29 62.1408C136.646 57.9432 137.162 51.7438 136.387 47.2234C134.773 37.2785 127.347 29.2063 117.208 26.494C115.206 25.9128 114.754 25.9129 110.686 25.9129C106.811 25.9129 106.165 25.9128 104.551 26.3649C100.805 27.3981 98.093 28.5605 94.0892 30.8207C89.3751 33.4684 85.1776 36.439 70.5831 47.4171C60.3798 55.1018 57.5384 57.1037 53.2117 60.0097C45.3979 65.2405 39.6505 68.0173 34.4197 69.1151C31.9658 69.6317 27.3162 69.6317 25.3143 69.1151C19.244 67.5653 14.5945 62.8511 13.1092 56.7162C12.528 54.3269 12.7217 49.9356 13.4966 47.6108C14.9819 43.2196 18.2754 39.9261 22.7312 38.3117C24.3456 37.7305 28.6723 37.5368 30.9325 37.9242C36.0342 38.8283 41.2649 41.476 49.7246 47.5463C51.5973 48.9024 53.5992 50.3877 54.1804 50.8397C55.4074 51.873 54.8262 52.1312 59.9278 48.3212L63.4796 45.6735L62.8983 45.1569C61.4131 43.9299 54.3741 38.6992 51.5973 36.6327C45.527 32.2414 40.942 29.5937 36.5508 27.7856C32.8053 26.2357 31.1263 25.9128 26.9933 25.8483C24.9914 25.8483 23.1833 25.8483 22.8604 25.8483L22.7312 25.7837Z" fill="#0FB871"/>
<path fill-rule="evenodd" clip-rule="evenodd" d="M68.9436 72.4658L94.9481 91.4228L94.4223 94.2167C92.7989 102.844 90.5066 109.765 86.8026 115.812C83.0881 121.876 78.1262 126.78 71.5683 131.62L69.0915 133.449L66.4901 131.803C47.5871 119.844 42.1944 101.693 42.5134 93.2153L42.5973 90.986L68.9436 72.4658ZM51.5996 95.659C52.2633 101.775 56.3953 113.534 68.7289 122.456C73.334 118.768 76.63 115.189 79.128 111.111C81.7168 106.885 83.582 101.904 85.0169 95.3207L68.8483 83.5339L51.5996 95.659Z" fill="#0FB871"/>
<path fill-rule="evenodd" clip-rule="evenodd" d="M65.8045 18.6194C62.9631 19.136 59.7343 21.6545 58.4427 24.3022C57.6032 25.9812 57.0866 29.0163 57.5386 29.533C57.8615 29.9204 62.7048 33.6013 66.0629 36.0553L68.3876 37.7343L73.9413 33.6659L79.495 29.5975V28.6289C79.495 26.2395 78.2034 23.3981 76.0724 21.3962C74.5225 19.9109 73.2955 19.2651 71.3582 18.7485C70.0021 18.4256 67.419 18.3611 65.8691 18.684L65.8045 18.6194Z" fill="#0FB871"/>
<path fill-rule="evenodd" clip-rule="evenodd" d="M94.1 0.0897224C93.1 -0.0102776 92.6 0.0897216 92 0.389722C91.5 0.689722 90.5 0.989722 89.7 1.08972C87.1 1.58972 83.3 3.38972 80.6 5.38972C78.4 7.08972 75.6 10.0897 73.9 12.6897C72.3 15.1897 72.2 15.2897 71.6 15.0897C70.7 14.8897 65.3 14.8897 64 15.0897C63 15.1897 63 15.1897 62.7 14.5897C62 13.0897 59.7 10.0897 57.7 7.98972C54.3 4.38972 50.4 2.18972 46.5 1.18972C45.5 0.889721 44.1 0.589722 43.5 0.389722C40.5 -0.710278 38.2 0.589722 38 3.38972C38 4.48972 38 4.78972 38.5 5.48972C39.7 7.18972 41.6 7.48972 43.5 6.28972C44.9 5.48972 45.6 5.48972 48 6.58972C51.6 8.08972 54.4 10.6897 56.9 14.4897C58.5 16.9897 58.6 17.3897 57.9 17.8897C57.9 17.8897 57.8 17.8897 57.7 17.9897C57.9 17.9897 58.2 17.9897 58.4 17.9897C61.9 18.1897 65.4 17.3897 69 17.5897C72 17.6897 75 17.7897 77.9 18.1897C77.7 18.0897 77.6 17.9897 77.5 17.8897C76.7 17.3897 76.7 17.3897 77 16.6897C78.4 13.2897 82.6 8.98972 86.2 7.18972C88.4 6.18972 91.1 5.48972 91.1 5.98972C91.1 6.48972 91.6 6.48972 92.3 6.78972C93.2 7.28972 93.7 7.38972 94.3 7.28972C96.1 6.98972 97.3 5.68972 97.3 3.68972C97.3 1.68972 96.1 0.389721 94 0.289721L94.1 0.0897224Z" fill="#0FB871"/>
<path d="M52 26.1052L68.5 37.6052L84.5 26.1052C82.5 22.1051 81 14.6052 68.5 13.1052C58.5 11.9052 53.3333 21.2718 52 26.1052Z" fill="#0FB871"/>
<path d="M199.841 88.1434C199.301 88.3054 198.437 88.4674 197.249 88.6294C196.115 88.7914 194.927 88.8724 193.685 88.8724C192.497 88.8724 191.417 88.7914 190.445 88.6294C189.527 88.4674 188.744 88.1434 188.096 87.6574C187.448 87.1714 186.935 86.5234 186.557 85.7134C186.233 84.8494 186.071 83.7424 186.071 82.3924V64.4104C186.071 62.1964 185.504 60.6574 184.37 59.7934C183.29 58.8754 181.94 58.4164 180.32 58.4164C179.24 58.4164 178.214 58.5514 177.242 58.8214C176.27 59.0914 175.487 59.4154 174.893 59.7934V88.1434C174.353 88.3054 173.489 88.4674 172.301 88.6294C171.167 88.7914 169.979 88.8724 168.737 88.8724C167.549 88.8724 166.469 88.7914 165.497 88.6294C164.579 88.4674 163.796 88.1434 163.148 87.6574C162.5 87.1714 161.987 86.5234 161.609 85.7134C161.285 84.8494 161.123 83.7424 161.123 82.3924V35.4124C161.717 35.3044 162.581 35.1694 163.715 35.0074C164.903 34.7914 166.091 34.6834 167.279 34.6834C168.467 34.6834 169.52 34.7644 170.438 34.9264C171.41 35.0884 172.22 35.4124 172.868 35.8984C173.516 36.3844 174.002 37.0594 174.326 37.9234C174.704 38.7334 174.893 39.8134 174.893 41.1634V49.1014C175.595 48.8314 176.648 48.5344 178.052 48.2104C179.51 47.8324 181.103 47.6434 182.831 47.6434C188.177 47.6434 192.335 48.9934 195.305 51.6934C198.329 54.3394 199.841 58.3084 199.841 63.6004V88.1434ZM222.113 88.1434C221.573 88.3054 220.709 88.4674 219.521 88.6294C218.387 88.7914 217.199 88.8724 215.957 88.8724C214.769 88.8724 213.689 88.7914 212.717 88.6294C211.799 88.4674 211.016 88.1434 210.368 87.6574C209.72 87.1714 209.207 86.5234 208.829 85.7134C208.505 84.8494 208.343 83.7424 208.343 82.3924V58.0924C208.343 56.8504 208.559 55.7974 208.991 54.9334C209.477 54.0154 210.152 53.2054 211.016 52.5034C211.88 51.8014 212.933 51.1804 214.175 50.6404C215.471 50.0464 216.848 49.5334 218.306 49.1014C219.764 48.6694 221.276 48.3454 222.842 48.1294C224.408 47.8594 225.974 47.7244 227.54 47.7244C230.132 47.7244 232.184 48.2374 233.696 49.2634C235.208 50.2354 235.964 51.8554 235.964 54.1234C235.964 54.8794 235.856 55.6354 235.64 56.3914C235.424 57.0934 235.154 57.7414 234.83 58.3354C233.696 58.3354 232.535 58.3894 231.347 58.4974C230.159 58.6054 228.998 58.7674 227.864 58.9834C226.73 59.1994 225.65 59.4424 224.624 59.7124C223.652 59.9284 222.815 60.1984 222.113 60.5224V88.1434ZM258.023 35.4934C258.563 35.3314 259.427 35.1694 260.615 35.0074C261.803 34.7914 263.018 34.6834 264.26 34.6834C265.448 34.6834 266.501 34.7644 267.419 34.9264C268.391 35.0884 269.201 35.4124 269.849 35.8984C270.497 36.3844 270.983 37.0594 271.307 37.9234C271.631 38.7334 271.793 39.8134 271.793 41.1634V49.1014C273.143 48.5614 274.412 48.1834 275.6 47.9674C276.842 47.7514 278.192 47.6434 279.65 47.6434C282.242 47.6434 284.699 48.1024 287.021 49.0204C289.343 49.9384 291.395 51.2884 293.177 53.0704C294.959 54.7984 296.363 56.9584 297.389 59.5504C298.415 62.1424 298.928 65.1394 298.928 68.5414C298.928 72.0514 298.388 75.1294 297.308 77.7754C296.282 80.3674 294.824 82.5274 292.934 84.2554C291.044 85.9834 288.722 87.3064 285.968 88.2244C283.268 89.0884 280.271 89.5204 276.977 89.5204C273.413 89.5204 270.389 89.0884 267.905 88.2244C265.421 87.4144 263.315 86.3884 261.587 85.1464C259.211 83.4724 258.023 81.3124 258.023 78.6664V35.4934ZM276.977 78.6664C279.461 78.6664 281.378 77.8294 282.728 76.1554C284.132 74.4274 284.834 71.8894 284.834 68.5414C284.834 65.1394 284.132 62.6014 282.728 60.9274C281.324 59.2534 279.434 58.4164 277.058 58.4164C275.978 58.4164 275.033 58.5244 274.223 58.7404C273.467 58.9564 272.63 59.2804 271.712 59.7124V77.3704C272.306 77.7484 273.008 78.0724 273.818 78.3424C274.682 78.5584 275.735 78.6664 276.977 78.6664ZM326.455 89.5204C323.269 89.5204 320.299 89.0884 317.545 88.2244C314.845 87.3064 312.469 85.9564 310.417 84.1744C308.419 82.3924 306.826 80.1514 305.638 77.4514C304.504 74.7514 303.937 71.5924 303.937 67.9744C303.937 64.4104 304.504 61.3594 305.638 58.8214C306.826 56.2294 308.365 54.1234 310.255 52.5034C312.145 50.8294 314.305 49.6144 316.735 48.8584C319.165 48.0484 321.649 47.6434 324.187 47.6434C327.049 47.6434 329.641 48.0754 331.963 48.9394C334.339 49.8034 336.364 50.9914 338.038 52.5034C339.766 54.0154 341.089 55.8244 342.007 57.9304C342.979 60.0364 343.465 62.3314 343.465 64.8154C343.465 66.6514 342.952 68.0554 341.926 69.0274C340.9 69.9994 339.469 70.6204 337.633 70.8904L317.626 73.8874C318.22 75.6694 319.435 77.0194 321.271 77.9374C323.107 78.8014 325.213 79.2334 327.589 79.2334C329.803 79.2334 331.882 78.9634 333.826 78.4234C335.824 77.8294 337.444 77.1544 338.686 76.3984C339.55 76.9384 340.279 77.6944 340.873 78.6664C341.467 79.6384 341.764 80.6644 341.764 81.7444C341.764 84.1744 340.63 85.9834 338.362 87.1714C336.634 88.0894 334.69 88.7104 332.53 89.0344C330.37 89.3584 328.345 89.5204 326.455 89.5204ZM324.187 57.6874C322.891 57.6874 321.757 57.9034 320.785 58.3354C319.867 58.7674 319.111 59.3344 318.517 60.0364C317.923 60.6844 317.464 61.4404 317.14 62.3044C316.87 63.1144 316.708 63.9514 316.654 64.8154L330.505 62.5474C330.343 61.4674 329.749 60.3874 328.723 59.3074C327.697 58.2274 326.185 57.6874 324.187 57.6874ZM370.91 89.5204C367.724 89.5204 364.754 89.0884 362 88.2244C359.3 87.3064 356.924 85.9564 354.872 84.1744C352.874 82.3924 351.281 80.1514 350.093 77.4514C348.959 74.7514 348.392 71.5924 348.392 67.9744C348.392 64.4104 348.959 61.3594 350.093 58.8214C351.281 56.2294 352.82 54.1234 354.71 52.5034C356.6 50.8294 358.76 49.6144 361.19 48.8584C363.62 48.0484 366.104 47.6434 368.642 47.6434C371.504 47.6434 374.096 48.0754 376.418 48.9394C378.794 49.8034 380.819 50.9914 382.493 52.5034C384.221 54.0154 385.544 55.8244 386.462 57.9304C387.434 60.0364 387.92 62.3314 387.92 64.8154C387.92 66.6514 387.407 68.0554 386.381 69.0274C385.355 69.9994 383.924 70.6204 382.088 70.8904L362.081 73.8874C362.675 75.6694 363.89 77.0194 365.726 77.9374C367.562 78.8014 369.668 79.2334 372.044 79.2334C374.258 79.2334 376.337 78.9634 378.281 78.4234C380.279 77.8294 381.899 77.1544 383.141 76.3984C384.005 76.9384 384.734 77.6944 385.328 78.6664C385.922 79.6384 386.219 80.6644 386.219 81.7444C386.219 84.1744 385.085 85.9834 382.817 87.1714C381.089 88.0894 379.145 88.7104 376.985 89.0344C374.825 89.3584 372.8 89.5204 370.91 89.5204ZM368.642 57.6874C367.346 57.6874 366.212 57.9034 365.24 58.3354C364.322 58.7674 363.566 59.3344 362.972 60.0364C362.378 60.6844 361.919 61.4404 361.595 62.3044C361.325 63.1144 361.163 63.9514 361.109 64.8154L374.96 62.5474C374.798 61.4674 374.204 60.3874 373.178 59.3074C372.152 58.2274 370.64 57.6874 368.642 57.6874Z" fill="#0D3341"/>
</svg>
