<svg width="424" height="97" viewBox="0 0 424 97" fill="none" xmlns="http://www.w3.org/2000/svg">
<path fill-rule="evenodd" clip-rule="evenodd" d="M65.8045 18.6194C62.9631 19.136 59.7343 21.6545 58.4427 24.3022C57.6032 25.9812 57.0866 29.0163 57.5386 29.533C57.8615 29.9204 62.7048 33.6013 66.0629 36.0553L68.3876 37.7343L73.9413 33.6659L79.495 29.5975V28.6289C79.495 26.2395 78.2034 23.3981 76.0724 21.3962C74.5225 19.9109 73.2955 19.2651 71.3582 18.7485C70.0021 18.4256 67.419 18.3611 65.8691 18.684L65.8045 18.6194Z" fill="#178974"/>
<path fill-rule="evenodd" clip-rule="evenodd" d="M22.7312 21.7837C15.9506 23.0107 11.4948 25.2709 7.10351 29.7267C4.32668 32.5681 2.38934 35.797 1.22695 39.4779C0.193708 42.7713 0 44.0629 0 48.2604C0 52.6517 0.387464 54.9765 1.61443 58.5282C3.55176 64.0173 7.36181 69.1189 11.8177 72.2832C21.8917 79.3222 33.774 79.193 46.8186 71.8312C52.4368 68.6669 57.0218 65.438 73.6182 53.0391C90.7312 40.2528 97.5118 36.0553 104.034 34.2471C105.584 33.7951 106.359 33.7305 109.265 33.7305C113.333 33.7305 114.819 34.118 117.337 35.7324C123.924 39.9945 126.12 48.9062 122.374 56.3326C120.179 60.7239 116.239 63.8882 111.525 65.0505C109.329 65.6317 104.551 65.5671 101.968 64.986C96.8015 63.8236 90.8604 60.853 84.1443 56.0097L81.8195 54.3307L79.7531 55.8806C78.5907 56.7201 76.7825 58.0762 75.7493 58.8511C74.6514 59.626 73.7474 60.2718 73.6828 60.3364C73.5536 60.401 73.8765 60.7238 76.2659 62.532C77.17 63.1778 78.4615 64.1464 79.1073 64.6631C79.7531 65.1797 81.7549 66.5358 83.5631 67.7628C91.5707 73.1227 97.189 75.7704 103.001 76.9974C106.23 77.6431 111.525 77.7077 114.56 76.9974C124.247 74.9309 132.125 67.7628 135.29 58.1408C136.646 53.9432 137.162 47.7438 136.387 43.2234C134.773 33.2785 127.347 25.2063 117.208 22.494C115.206 21.9128 114.754 21.9129 110.686 21.9129C106.811 21.9129 106.165 21.9128 104.551 22.3649C100.805 23.3981 98.093 24.5605 94.0892 26.8207C89.3751 29.4684 85.1776 32.439 70.5831 43.4171C60.3798 51.1018 57.5384 53.1037 53.2117 56.0097C45.3979 61.2405 39.6505 64.0173 34.4197 65.1151C31.9658 65.6317 27.3162 65.6317 25.3143 65.1151C19.244 63.5653 14.5945 58.8511 13.1092 52.7162C12.528 50.3269 12.7217 45.9356 13.4966 43.6108C14.9819 39.2196 18.2754 35.9261 22.7312 34.3117C24.3456 33.7305 28.6723 33.5368 30.9325 33.9242C36.0342 34.8283 41.2649 37.476 49.7246 43.5463C51.5973 44.9024 53.5992 46.3877 54.1804 46.8397C55.4074 47.873 54.8262 48.1312 59.9278 44.3212L63.4796 41.6735L62.8983 41.1569C61.4131 39.9299 54.3741 34.6992 51.5973 32.6327C45.527 28.2414 40.942 25.5937 36.5508 23.7856C32.8053 22.2357 31.1263 21.9128 26.9933 21.8483C24.9914 21.8483 23.1833 21.8483 22.8604 21.8483L22.7312 21.7837Z" fill="#178974"/>
<path fill-rule="evenodd" clip-rule="evenodd" d="M94.1 0.0897224C93.1 -0.0102776 92.6 0.0897216 92 0.389722C91.5 0.689722 90.5 0.989722 89.7 1.08972C87.1 1.58972 83.3 3.38972 80.6 5.38972C78.4 7.08972 75.6 10.0897 73.9 12.6897C72.3 15.1897 72.2 15.2897 71.6 15.0897C70.7 14.8897 65.3 14.8897 64 15.0897C63 15.1897 63 15.1897 62.7 14.5897C62 13.0897 59.7 10.0897 57.7 7.98972C54.3 4.38972 50.4 2.18972 46.5 1.18972C45.5 0.889721 44.1 0.589722 43.5 0.389722C40.5 -0.710278 38.2 0.589722 38 3.38972C38 4.48972 38 4.78972 38.5 5.48972C39.7 7.18972 41.6 7.48972 43.5 6.28972C44.9 5.48972 45.6 5.48972 48 6.58972C51.6 8.08972 54.4 10.6897 56.9 14.4897C58.5 16.9897 58.6 17.3897 57.9 17.8897C57.9 17.8897 57.8 17.8897 57.7 17.9897C57.9 17.9897 58.2 17.9897 58.4 17.9897C61.9 18.1897 65.4 17.3897 69 17.5897C72 17.6897 75 17.7897 77.9 18.1897C77.7 18.0897 77.6 17.9897 77.5 17.8897C76.7 17.3897 76.7 17.3897 77 16.6897C78.4 13.2897 82.6 8.98972 86.2 7.18972C88.4 6.18972 91.1 5.48972 91.1 5.98972C91.1 6.48972 91.6 6.48972 92.3 6.78972C93.2 7.28972 93.7 7.38972 94.3 7.28972C96.1 6.98972 97.3 5.68972 97.3 3.68972C97.3 1.68972 96.1 0.389721 94 0.289721L94.1 0.0897224Z" fill="#0D3341"/>
<path fill-rule="evenodd" clip-rule="evenodd" d="M66.3988 65.4041C65.8822 65.8561 64.0095 67.2768 62.2013 68.5038C60.4577 69.7953 59.037 70.8286 59.1662 70.8931C59.7474 71.216 63.1054 71.991 65.0427 72.1847C66.7217 72.3784 67.8841 72.3784 69.8215 72.1847C72.34 71.9264 75.8917 71.0869 75.8271 70.764C75.7626 70.5702 67.755 64.5 67.5612 64.5C67.4967 64.5 66.98 64.8875 66.4634 65.3395L66.3988 65.4041Z" fill="#0D3341"/>
<path fill-rule="evenodd" clip-rule="evenodd" d="M54 75.0901C54 75.7359 54.6458 79.2877 54.9041 80.0626C55.0978 80.773 55.5498 81.0313 58.0038 82.2583C62.2013 84.3893 68.7236 84.9059 73.9544 83.4852C75.2459 83.1623 78.7977 81.5479 79.5081 80.9667C79.8955 80.6438 80.6704 77.9316 80.9287 75.8651C81.0579 74.8964 80.9933 74.6381 80.735 74.7673C77.0541 76.2525 75.6334 76.7692 73.8252 77.2858C71.8879 77.8024 71.3067 77.867 67.6904 77.867C62.2659 77.867 60.3286 77.415 54.2583 74.8319C54.0646 74.7673 54 74.8319 54 75.1547V75.0901Z" fill="#178974"/>
<path fill-rule="evenodd" clip-rule="evenodd" d="M59.4892 89.6202C60.8454 91.3638 63.493 93.8823 65.6886 95.4968L67.4322 96.7883L69.2404 95.3676C70.9194 94.0761 76.2793 88.8453 76.1502 88.7162C76.1502 88.7162 75.1815 88.9099 74.0191 89.2328C72.1464 89.7494 71.5652 89.8139 67.6905 89.8139C63.8159 89.8139 63.2993 89.814 61.362 89.2328C60.1996 88.9099 59.1018 88.587 58.8435 88.5224C58.5851 88.3932 58.7143 88.7807 59.4246 89.6202H59.4892Z" fill="#0D3341"/>
<path d="M52 26.1052L68.5 37.6052L84.5 26.1052C82.5 22.1051 81 14.6052 68.5 13.1052C58.5 11.9052 53.3333 21.2718 52 26.1052Z" fill="#0D3341"/>
<path d="M205.916 69.5705C205.322 69.7325 204.377 69.8945 203.081 70.0565C201.839 70.2185 200.597 70.2995 199.355 70.2995C198.113 70.2995 197.006 70.1915 196.034 69.9755C195.116 69.8135 194.333 69.4895 193.685 69.0035C193.037 68.5175 192.551 67.8425 192.227 66.9785C191.903 66.1145 191.741 64.9805 191.741 63.5765V50.9405H176.189V69.5705C175.595 69.7325 174.65 69.8945 173.354 70.0565C172.112 70.2185 170.87 70.2995 169.628 70.2995C168.386 70.2995 167.279 70.1915 166.307 69.9755C165.389 69.8135 164.606 69.4895 163.958 69.0035C163.31 68.5175 162.824 67.8425 162.5 66.9785C162.176 66.1145 162.014 64.9805 162.014 63.5765V20.8085C162.608 20.7005 163.553 20.5655 164.849 20.4035C166.145 20.1875 167.387 20.0795 168.575 20.0795C169.817 20.0795 170.897 20.1875 171.815 20.4035C172.787 20.5655 173.597 20.8895 174.245 21.3755C174.893 21.8615 175.379 22.5365 175.703 23.4005C176.027 24.2645 176.189 25.3985 176.189 26.8025V39.7625H191.741V20.8085C192.335 20.7005 193.28 20.5655 194.576 20.4035C195.872 20.1875 197.114 20.0795 198.302 20.0795C199.544 20.0795 200.624 20.1875 201.542 20.4035C202.514 20.5655 203.324 20.8895 203.972 21.3755C204.62 21.8615 205.106 22.5365 205.43 23.4005C205.754 24.2645 205.916 25.3985 205.916 26.8025V69.5705ZM232.15 54.0185V69.5705C231.556 69.7325 230.611 69.8945 229.315 70.0565C228.073 70.2185 226.831 70.2995 225.589 70.2995C224.347 70.2995 223.24 70.1915 222.268 69.9755C221.35 69.8135 220.567 69.4895 219.919 69.0035C219.325 68.5175 218.866 67.8425 218.542 66.9785C218.218 66.1145 218.056 64.9805 218.056 63.5765V25.4255C218.056 24.2915 218.353 23.4275 218.947 22.8335C219.595 22.1855 220.459 21.6725 221.539 21.2945C223.375 20.6465 225.508 20.1875 227.938 19.9175C230.368 19.5935 232.96 19.4315 235.714 19.4315C243.166 19.4315 248.782 20.9975 252.562 24.1295C256.342 27.2615 258.232 31.5005 258.232 36.8465C258.232 40.1945 257.368 43.0565 255.64 45.4325C253.912 47.8085 251.86 49.6445 249.484 50.9405C251.428 53.5865 253.345 56.0705 255.235 58.3925C257.125 60.7145 258.61 62.8205 259.69 64.7105C259.15 66.6005 258.151 68.0585 256.693 69.0845C255.289 70.0565 253.696 70.5425 251.914 70.5425C250.726 70.5425 249.7 70.4075 248.836 70.1375C247.972 69.8675 247.216 69.4895 246.568 69.0035C245.92 68.5175 245.326 67.9235 244.786 67.2215C244.246 66.5195 243.733 65.7635 243.247 64.9535L236.443 54.0185H232.15ZM237.253 43.2455C239.305 43.2455 240.925 42.7325 242.113 41.7065C243.301 40.6265 243.895 39.0605 243.895 37.0085C243.895 34.9565 243.22 33.4175 241.87 32.3915C240.574 31.3115 238.495 30.7715 235.633 30.7715C234.823 30.7715 234.175 30.7985 233.689 30.8525C233.203 30.9065 232.663 30.9875 232.069 31.0955V43.2455H237.253ZM300.641 59.7695C301.397 59.9855 302.369 60.1475 303.557 60.2555C304.745 60.3095 305.879 60.3365 306.959 60.3365C309.119 60.3365 310.901 59.9045 312.305 59.0405C313.763 58.1225 314.492 56.7185 314.492 54.8285C314.492 53.0465 313.898 51.7775 312.71 51.0215C311.522 50.2655 309.713 49.8875 307.283 49.8875H300.641V59.7695ZM300.641 40.0055H306.554C308.876 40.0055 310.55 39.5735 311.576 38.7095C312.656 37.8455 313.196 36.5765 313.196 34.9025C313.196 33.4445 312.575 32.2835 311.333 31.4195C310.145 30.5555 308.336 30.1235 305.906 30.1235C305.096 30.1235 304.151 30.1505 303.071 30.2045C302.045 30.2585 301.235 30.3395 300.641 30.4475V40.0055ZM305.906 71.1905C304.988 71.1905 303.908 71.1635 302.666 71.1095C301.424 71.0555 300.128 70.9475 298.778 70.7855C297.482 70.6235 296.186 70.4075 294.89 70.1375C293.594 69.9215 292.406 69.5975 291.326 69.1655C288.356 68.0315 286.871 66.0605 286.871 63.2525V25.4255C286.871 24.2915 287.168 23.4275 287.762 22.8335C288.41 22.1855 289.274 21.6725 290.354 21.2945C292.19 20.6465 294.485 20.1875 297.239 19.9175C299.993 19.5935 302.828 19.4315 305.744 19.4315C312.656 19.4315 317.975 20.5925 321.701 22.9145C325.427 25.2365 327.29 28.8275 327.29 33.6875C327.29 36.1175 326.588 38.2235 325.184 40.0055C323.78 41.7335 321.89 43.0025 319.514 43.8125C322.214 44.5685 324.455 45.9455 326.237 47.9435C328.073 49.9415 328.991 52.4525 328.991 55.4765C328.991 60.8225 326.993 64.7915 322.997 67.3835C319.055 69.9215 313.358 71.1905 305.906 71.1905ZM338.642 28.3415C338.642 26.0195 339.317 24.1835 340.667 22.8335C342.017 21.4835 343.853 20.8085 346.175 20.8085H372.905C373.283 21.4025 373.607 22.1855 373.877 23.1575C374.201 24.1295 374.363 25.1555 374.363 26.2355C374.363 28.2875 373.904 29.7455 372.986 30.6095C372.122 31.4735 370.961 31.9055 369.503 31.9055H352.412V39.4385H370.637C371.015 40.0325 371.339 40.8155 371.609 41.7875C371.933 42.7055 372.095 43.7045 372.095 44.7845C372.095 46.8365 371.663 48.2945 370.799 49.1585C369.935 50.0225 368.774 50.4545 367.316 50.4545H352.412V58.9595H373.229C373.607 59.5535 373.931 60.3365 374.201 61.3085C374.525 62.2805 374.687 63.3065 374.687 64.3865C374.687 66.4385 374.228 67.9235 373.31 68.8415C372.446 69.7055 371.285 70.1375 369.827 70.1375H346.175C343.853 70.1375 342.017 69.4625 340.667 68.1125C339.317 66.7625 338.642 64.9265 338.642 62.6045V28.3415ZM384.638 28.3415C384.638 26.0195 385.313 24.1835 386.663 22.8335C388.013 21.4835 389.849 20.8085 392.171 20.8085H418.901C419.279 21.4025 419.603 22.1855 419.873 23.1575C420.197 24.1295 420.359 25.1555 420.359 26.2355C420.359 28.2875 419.9 29.7455 418.982 30.6095C418.118 31.4735 416.957 31.9055 415.499 31.9055H398.408V39.4385H416.633C417.011 40.0325 417.335 40.8155 417.605 41.7875C417.929 42.7055 418.091 43.7045 418.091 44.7845C418.091 46.8365 417.659 48.2945 416.795 49.1585C415.931 50.0225 414.77 50.4545 413.312 50.4545H398.408V58.9595H419.225C419.603 59.5535 419.927 60.3365 420.197 61.3085C420.521 62.2805 420.683 63.3065 420.683 64.3865C420.683 66.4385 420.224 67.9235 419.306 68.8415C418.442 69.7055 417.281 70.1375 415.823 70.1375H392.171C389.849 70.1375 388.013 69.4625 386.663 68.1125C385.313 66.7625 384.638 64.9265 384.638 62.6045V28.3415Z" fill="#0D3341"/>
</svg>
