<svg width="137" height="134" viewBox="0 0 137 134" fill="none" xmlns="http://www.w3.org/2000/svg">
<path fill-rule="evenodd" clip-rule="evenodd" d="M22.7312 25.7837C15.9506 27.0107 11.4948 29.2709 7.10351 33.7267C4.32668 36.5681 2.38934 39.797 1.22695 43.4779C0.193708 46.7713 0 48.0629 0 52.2604C0 56.6517 0.387464 58.9765 1.61443 62.5282C3.55176 68.0173 7.36181 73.1189 11.8177 76.2832C21.8917 83.3222 33.774 83.193 46.8186 75.8312C52.4368 72.6669 57.0218 69.438 73.6182 57.0391C90.7312 44.2528 97.5118 40.0553 104.034 38.2471C105.584 37.7951 106.359 37.7305 109.265 37.7305C113.333 37.7305 114.819 38.118 117.337 39.7324C123.924 43.9945 126.12 52.9062 122.374 60.3326C120.179 64.7239 116.239 67.8882 111.525 69.0505C109.329 69.6317 104.551 69.5671 101.968 68.986C96.8015 67.8236 90.8604 64.853 84.1443 60.0097L81.8195 58.3307L79.7531 59.8806C78.5907 60.7201 76.7825 62.0762 75.7493 62.8511C74.6514 63.626 73.7474 64.2718 73.6828 64.3364C73.5536 64.401 73.8765 64.7238 76.2659 66.532C77.17 67.1778 78.4615 68.1464 79.1073 68.6631C79.7531 69.1797 81.7549 70.5358 83.5631 71.7628C91.5707 77.1227 97.189 79.7704 103.001 80.9974C106.23 81.6431 111.525 81.7077 114.56 80.9974C124.247 78.9309 132.125 71.7628 135.29 62.1408C136.646 57.9432 137.162 51.7438 136.387 47.2234C134.773 37.2785 127.347 29.2063 117.208 26.494C115.206 25.9128 114.754 25.9129 110.686 25.9129C106.811 25.9129 106.165 25.9128 104.551 26.3649C100.805 27.3981 98.093 28.5605 94.0892 30.8207C89.3751 33.4684 85.1776 36.439 70.5831 47.4171C60.3798 55.1018 57.5384 57.1037 53.2117 60.0097C45.3979 65.2405 39.6505 68.0173 34.4197 69.1151C31.9658 69.6317 27.3162 69.6317 25.3143 69.1151C19.244 67.5653 14.5945 62.8511 13.1092 56.7162C12.528 54.3269 12.7217 49.9356 13.4966 47.6108C14.9819 43.2196 18.2754 39.9261 22.7312 38.3117C24.3456 37.7305 28.6723 37.5368 30.9325 37.9242C36.0342 38.8283 41.2649 41.476 49.7246 47.5463C51.5973 48.9024 53.5992 50.3877 54.1804 50.8397C55.4074 51.873 54.8262 52.1312 59.9278 48.3212L63.4796 45.6735L62.8983 45.1569C61.4131 43.9299 54.3741 38.6992 51.5973 36.6327C45.527 32.2414 40.942 29.5937 36.5508 27.7856C32.8053 26.2357 31.1263 25.9128 26.9933 25.8483C24.9914 25.8483 23.1833 25.8483 22.8604 25.8483L22.7312 25.7837Z" fill="#0FB871"/>
<path fill-rule="evenodd" clip-rule="evenodd" d="M68.9436 72.4658L94.9481 91.4228L94.4223 94.2167C92.7989 102.844 90.5066 109.765 86.8026 115.812C83.0881 121.876 78.1262 126.78 71.5683 131.62L69.0915 133.449L66.4901 131.803C47.5871 119.844 42.1944 101.693 42.5134 93.2153L42.5973 90.986L68.9436 72.4658ZM51.5996 95.659C52.2633 101.775 56.3953 113.534 68.7289 122.456C73.334 118.768 76.63 115.189 79.128 111.111C81.7168 106.885 83.582 101.904 85.0169 95.3207L68.8483 83.5339L51.5996 95.659Z" fill="#0FB871"/>
<path fill-rule="evenodd" clip-rule="evenodd" d="M65.8045 18.6194C62.9631 19.136 59.7343 21.6545 58.4427 24.3022C57.6032 25.9812 57.0866 29.0163 57.5386 29.533C57.8615 29.9204 62.7048 33.6013 66.0629 36.0553L68.3876 37.7343L73.9413 33.6659L79.495 29.5975V28.6289C79.495 26.2395 78.2034 23.3981 76.0724 21.3962C74.5225 19.9109 73.2955 19.2651 71.3582 18.7485C70.0021 18.4256 67.419 18.3611 65.8691 18.684L65.8045 18.6194Z" fill="#0FB871"/>
<path fill-rule="evenodd" clip-rule="evenodd" d="M94.1 0.0897224C93.1 -0.0102776 92.6 0.0897216 92 0.389722C91.5 0.689722 90.5 0.989722 89.7 1.08972C87.1 1.58972 83.3 3.38972 80.6 5.38972C78.4 7.08972 75.6 10.0897 73.9 12.6897C72.3 15.1897 72.2 15.2897 71.6 15.0897C70.7 14.8897 65.3 14.8897 64 15.0897C63 15.1897 63 15.1897 62.7 14.5897C62 13.0897 59.7 10.0897 57.7 7.98972C54.3 4.38972 50.4 2.18972 46.5 1.18972C45.5 0.889721 44.1 0.589722 43.5 0.389722C40.5 -0.710278 38.2 0.589722 38 3.38972C38 4.48972 38 4.78972 38.5 5.48972C39.7 7.18972 41.6 7.48972 43.5 6.28972C44.9 5.48972 45.6 5.48972 48 6.58972C51.6 8.08972 54.4 10.6897 56.9 14.4897C58.5 16.9897 58.6 17.3897 57.9 17.8897C57.9 17.8897 57.8 17.8897 57.7 17.9897C57.9 17.9897 58.2 17.9897 58.4 17.9897C61.9 18.1897 65.4 17.3897 69 17.5897C72 17.6897 75 17.7897 77.9 18.1897C77.7 18.0897 77.6 17.9897 77.5 17.8897C76.7 17.3897 76.7 17.3897 77 16.6897C78.4 13.2897 82.6 8.98972 86.2 7.18972C88.4 6.18972 91.1 5.48972 91.1 5.98972C91.1 6.48972 91.6 6.48972 92.3 6.78972C93.2 7.28972 93.7 7.38972 94.3 7.28972C96.1 6.98972 97.3 5.68972 97.3 3.68972C97.3 1.68972 96.1 0.389721 94 0.289721L94.1 0.0897224Z" fill="#0FB871"/>
<path d="M52 26.1052L68.5 37.6052L84.5 26.1052C82.5 22.1051 81 14.6052 68.5 13.1052C58.5 11.9052 53.3333 21.2718 52 26.1052Z" fill="#0FB871"/>
</svg>
