<svg width="443" height="134" viewBox="0 0 443 134" fill="none" xmlns="http://www.w3.org/2000/svg">
<path fill-rule="evenodd" clip-rule="evenodd" d="M22.7312 25.7837C15.9506 27.0107 11.4948 29.2709 7.10351 33.7267C4.32668 36.5681 2.38934 39.797 1.22695 43.4779C0.193708 46.7713 0 48.0629 0 52.2604C0 56.6517 0.387464 58.9765 1.61443 62.5282C3.55176 68.0173 7.36181 73.1189 11.8177 76.2832C21.8917 83.3222 33.774 83.193 46.8186 75.8312C52.4368 72.6669 57.0218 69.438 73.6182 57.0391C90.7312 44.2528 97.5118 40.0553 104.034 38.2471C105.584 37.7951 106.359 37.7305 109.265 37.7305C113.333 37.7305 114.819 38.118 117.337 39.7324C123.924 43.9945 126.12 52.9062 122.374 60.3326C120.179 64.7239 116.239 67.8882 111.525 69.0505C109.329 69.6317 104.551 69.5671 101.968 68.986C96.8015 67.8236 90.8604 64.853 84.1443 60.0097L81.8195 58.3307L79.7531 59.8806C78.5907 60.7201 76.7825 62.0762 75.7493 62.8511C74.6514 63.626 73.7474 64.2718 73.6828 64.3364C73.5536 64.401 73.8765 64.7238 76.2659 66.532C77.17 67.1778 78.4615 68.1464 79.1073 68.6631C79.7531 69.1797 81.7549 70.5358 83.5631 71.7628C91.5707 77.1227 97.189 79.7704 103.001 80.9974C106.23 81.6431 111.525 81.7077 114.56 80.9974C124.247 78.9309 132.125 71.7628 135.29 62.1408C136.646 57.9432 137.162 51.7438 136.387 47.2234C134.773 37.2785 127.347 29.2063 117.208 26.494C115.206 25.9128 114.754 25.9129 110.686 25.9129C106.811 25.9129 106.165 25.9128 104.551 26.3649C100.805 27.3981 98.093 28.5605 94.0892 30.8207C89.3751 33.4684 85.1776 36.439 70.5831 47.4171C60.3798 55.1018 57.5384 57.1037 53.2117 60.0097C45.3979 65.2405 39.6505 68.0173 34.4197 69.1151C31.9658 69.6317 27.3162 69.6317 25.3143 69.1151C19.244 67.5653 14.5945 62.8511 13.1092 56.7162C12.528 54.3269 12.7217 49.9356 13.4966 47.6108C14.9819 43.2196 18.2754 39.9261 22.7312 38.3117C24.3456 37.7305 28.6723 37.5368 30.9325 37.9242C36.0342 38.8283 41.2649 41.476 49.7246 47.5463C51.5973 48.9024 53.5992 50.3877 54.1804 50.8397C55.4074 51.873 54.8262 52.1312 59.9278 48.3212L63.4796 45.6735L62.8983 45.1569C61.4131 43.9299 54.3741 38.6992 51.5973 36.6327C45.527 32.2414 40.942 29.5937 36.5508 27.7856C32.8053 26.2357 31.1263 25.9128 26.9933 25.8483C24.9914 25.8483 23.1833 25.8483 22.8604 25.8483L22.7312 25.7837Z" fill="#0FB871"/>
<path fill-rule="evenodd" clip-rule="evenodd" d="M68.9436 72.4658L94.9481 91.4228L94.4223 94.2167C92.7989 102.844 90.5066 109.765 86.8026 115.812C83.0881 121.876 78.1262 126.78 71.5683 131.62L69.0915 133.449L66.4901 131.803C47.5871 119.844 42.1944 101.693 42.5134 93.2153L42.5973 90.986L68.9436 72.4658ZM51.5996 95.659C52.2633 101.775 56.3953 113.534 68.7289 122.456C73.334 118.768 76.63 115.189 79.128 111.111C81.7168 106.885 83.582 101.904 85.0169 95.3207L68.8483 83.5339L51.5996 95.659Z" fill="#0FB871"/>
<path fill-rule="evenodd" clip-rule="evenodd" d="M65.8045 18.6194C62.9631 19.136 59.7343 21.6545 58.4427 24.3022C57.6032 25.9812 57.0866 29.0163 57.5386 29.533C57.8615 29.9204 62.7048 33.6013 66.0629 36.0553L68.3876 37.7343L73.9413 33.6659L79.495 29.5975V28.6289C79.495 26.2395 78.2034 23.3981 76.0724 21.3962C74.5225 19.9109 73.2955 19.2651 71.3582 18.7485C70.0021 18.4256 67.419 18.3611 65.8691 18.684L65.8045 18.6194Z" fill="#0FB871"/>
<path fill-rule="evenodd" clip-rule="evenodd" d="M94.1 0.0897224C93.1 -0.0102776 92.6 0.0897216 92 0.389722C91.5 0.689722 90.5 0.989722 89.7 1.08972C87.1 1.58972 83.3 3.38972 80.6 5.38972C78.4 7.08972 75.6 10.0897 73.9 12.6897C72.3 15.1897 72.2 15.2897 71.6 15.0897C70.7 14.8897 65.3 14.8897 64 15.0897C63 15.1897 63 15.1897 62.7 14.5897C62 13.0897 59.7 10.0897 57.7 7.98972C54.3 4.38972 50.4 2.18972 46.5 1.18972C45.5 0.889721 44.1 0.589722 43.5 0.389722C40.5 -0.710278 38.2 0.589722 38 3.38972C38 4.48972 38 4.78972 38.5 5.48972C39.7 7.18972 41.6 7.48972 43.5 6.28972C44.9 5.48972 45.6 5.48972 48 6.58972C51.6 8.08972 54.4 10.6897 56.9 14.4897C58.5 16.9897 58.6 17.3897 57.9 17.8897C57.9 17.8897 57.8 17.8897 57.7 17.9897C57.9 17.9897 58.2 17.9897 58.4 17.9897C61.9 18.1897 65.4 17.3897 69 17.5897C72 17.6897 75 17.7897 77.9 18.1897C77.7 18.0897 77.6 17.9897 77.5 17.8897C76.7 17.3897 76.7 17.3897 77 16.6897C78.4 13.2897 82.6 8.98972 86.2 7.18972C88.4 6.18972 91.1 5.48972 91.1 5.98972C91.1 6.48972 91.6 6.48972 92.3 6.78972C93.2 7.28972 93.7 7.38972 94.3 7.28972C96.1 6.98972 97.3 5.68972 97.3 3.68972C97.3 1.68972 96.1 0.389721 94 0.289721L94.1 0.0897224Z" fill="#0FB871"/>
<path d="M52 26.1052L68.5 37.6052L84.5 26.1052C82.5 22.1051 81 14.6052 68.5 13.1052C58.5 11.9052 53.3333 21.2718 52 26.1052Z" fill="#0FB871"/>
<path d="M199.841 88.1436C199.301 88.3056 198.437 88.4676 197.249 88.6296C196.115 88.7916 194.927 88.8726 193.685 88.8726C192.497 88.8726 191.417 88.7916 190.445 88.6296C189.527 88.4676 188.744 88.1436 188.096 87.6576C187.448 87.1716 186.935 86.5236 186.557 85.7136C186.233 84.8496 186.071 83.7426 186.071 82.3926V64.4106C186.071 62.1966 185.504 60.6576 184.37 59.7936C183.29 58.8756 181.94 58.4166 180.32 58.4166C179.24 58.4166 178.214 58.5516 177.242 58.8216C176.27 59.0916 175.487 59.4156 174.893 59.7936V88.1436C174.353 88.3056 173.489 88.4676 172.301 88.6296C171.167 88.7916 169.979 88.8726 168.737 88.8726C167.549 88.8726 166.469 88.7916 165.497 88.6296C164.579 88.4676 163.796 88.1436 163.148 87.6576C162.5 87.1716 161.987 86.5236 161.609 85.7136C161.285 84.8496 161.123 83.7426 161.123 82.3926V35.4126C161.717 35.3046 162.581 35.1696 163.715 35.0076C164.903 34.7916 166.091 34.6836 167.279 34.6836C168.467 34.6836 169.52 34.7646 170.438 34.9266C171.41 35.0886 172.22 35.4126 172.868 35.8986C173.516 36.3846 174.002 37.0596 174.326 37.9236C174.704 38.7336 174.893 39.8136 174.893 41.1636V49.1016C175.595 48.8316 176.648 48.5346 178.052 48.2106C179.51 47.8326 181.103 47.6436 182.831 47.6436C188.177 47.6436 192.335 48.9936 195.305 51.6936C198.329 54.3396 199.841 58.3086 199.841 63.6006V88.1436ZM222.113 88.1436C221.573 88.3056 220.709 88.4676 219.521 88.6296C218.387 88.7916 217.199 88.8726 215.957 88.8726C214.769 88.8726 213.689 88.7916 212.717 88.6296C211.799 88.4676 211.016 88.1436 210.368 87.6576C209.72 87.1716 209.207 86.5236 208.829 85.7136C208.505 84.8496 208.343 83.7426 208.343 82.3926V58.0926C208.343 56.8506 208.559 55.7976 208.991 54.9336C209.477 54.0156 210.152 53.2056 211.016 52.5036C211.88 51.8016 212.933 51.1806 214.175 50.6406C215.471 50.0466 216.848 49.5336 218.306 49.1016C219.764 48.6696 221.276 48.3456 222.842 48.1296C224.408 47.8596 225.974 47.7246 227.54 47.7246C230.132 47.7246 232.184 48.2376 233.696 49.2636C235.208 50.2356 235.964 51.8556 235.964 54.1236C235.964 54.8796 235.856 55.6356 235.64 56.3916C235.424 57.0936 235.154 57.7416 234.83 58.3356C233.696 58.3356 232.535 58.3896 231.347 58.4976C230.159 58.6056 228.998 58.7676 227.864 58.9836C226.73 59.1996 225.65 59.4426 224.624 59.7126C223.652 59.9286 222.815 60.1986 222.113 60.5226V88.1436ZM258.023 35.4936C258.563 35.3316 259.427 35.1696 260.615 35.0076C261.803 34.7916 263.018 34.6836 264.26 34.6836C265.448 34.6836 266.501 34.7646 267.419 34.9266C268.391 35.0886 269.201 35.4126 269.849 35.8986C270.497 36.3846 270.983 37.0596 271.307 37.9236C271.631 38.7336 271.793 39.8136 271.793 41.1636V49.1016C273.143 48.5616 274.412 48.1836 275.6 47.9676C276.842 47.7516 278.192 47.6436 279.65 47.6436C282.242 47.6436 284.699 48.1026 287.021 49.0206C289.343 49.9386 291.395 51.2886 293.177 53.0706C294.959 54.7986 296.363 56.9586 297.389 59.5506C298.415 62.1426 298.928 65.1396 298.928 68.5416C298.928 72.0516 298.388 75.1296 297.308 77.7756C296.282 80.3676 294.824 82.5276 292.934 84.2556C291.044 85.9836 288.722 87.3066 285.968 88.2246C283.268 89.0886 280.271 89.5206 276.977 89.5206C273.413 89.5206 270.389 89.0886 267.905 88.2246C265.421 87.4146 263.315 86.3886 261.587 85.1466C259.211 83.4726 258.023 81.3126 258.023 78.6666V35.4936ZM276.977 78.6666C279.461 78.6666 281.378 77.8296 282.728 76.1556C284.132 74.4276 284.834 71.8896 284.834 68.5416C284.834 65.1396 284.132 62.6016 282.728 60.9276C281.324 59.2536 279.434 58.4166 277.058 58.4166C275.978 58.4166 275.033 58.5246 274.223 58.7406C273.467 58.9566 272.63 59.2806 271.712 59.7126V77.3706C272.306 77.7486 273.008 78.0726 273.818 78.3426C274.682 78.5586 275.735 78.6666 276.977 78.6666ZM326.455 89.5206C323.269 89.5206 320.299 89.0886 317.545 88.2246C314.845 87.3066 312.469 85.9566 310.417 84.1746C308.419 82.3926 306.826 80.1516 305.638 77.4516C304.504 74.7516 303.937 71.5926 303.937 67.9746C303.937 64.4106 304.504 61.3596 305.638 58.8216C306.826 56.2296 308.365 54.1236 310.255 52.5036C312.145 50.8296 314.305 49.6146 316.735 48.8586C319.165 48.0486 321.649 47.6436 324.187 47.6436C327.049 47.6436 329.641 48.0756 331.963 48.9396C334.339 49.8036 336.364 50.9916 338.038 52.5036C339.766 54.0156 341.089 55.8246 342.007 57.9306C342.979 60.0366 343.465 62.3316 343.465 64.8156C343.465 66.6516 342.952 68.0556 341.926 69.0276C340.9 69.9996 339.469 70.6206 337.633 70.8906L317.626 73.8876C318.22 75.6696 319.435 77.0196 321.271 77.9376C323.107 78.8016 325.213 79.2336 327.589 79.2336C329.803 79.2336 331.882 78.9636 333.826 78.4236C335.824 77.8296 337.444 77.1546 338.686 76.3986C339.55 76.9386 340.279 77.6946 340.873 78.6666C341.467 79.6386 341.764 80.6646 341.764 81.7446C341.764 84.1746 340.63 85.9836 338.362 87.1716C336.634 88.0896 334.69 88.7106 332.53 89.0346C330.37 89.3586 328.345 89.5206 326.455 89.5206ZM324.187 57.6876C322.891 57.6876 321.757 57.9036 320.785 58.3356C319.867 58.7676 319.111 59.3346 318.517 60.0366C317.923 60.6846 317.464 61.4406 317.14 62.3046C316.87 63.1146 316.708 63.9516 316.654 64.8156L330.505 62.5476C330.343 61.4676 329.749 60.3876 328.723 59.3076C327.697 58.2276 326.185 57.6876 324.187 57.6876ZM370.91 89.5206C367.724 89.5206 364.754 89.0886 362 88.2246C359.3 87.3066 356.924 85.9566 354.872 84.1746C352.874 82.3926 351.281 80.1516 350.093 77.4516C348.959 74.7516 348.392 71.5926 348.392 67.9746C348.392 64.4106 348.959 61.3596 350.093 58.8216C351.281 56.2296 352.82 54.1236 354.71 52.5036C356.6 50.8296 358.76 49.6146 361.19 48.8586C363.62 48.0486 366.104 47.6436 368.642 47.6436C371.504 47.6436 374.096 48.0756 376.418 48.9396C378.794 49.8036 380.819 50.9916 382.493 52.5036C384.221 54.0156 385.544 55.8246 386.462 57.9306C387.434 60.0366 387.92 62.3316 387.92 64.8156C387.92 66.6516 387.407 68.0556 386.381 69.0276C385.355 69.9996 383.924 70.6206 382.088 70.8906L362.081 73.8876C362.675 75.6696 363.89 77.0196 365.726 77.9376C367.562 78.8016 369.668 79.2336 372.044 79.2336C374.258 79.2336 376.337 78.9636 378.281 78.4236C380.279 77.8296 381.899 77.1546 383.141 76.3986C384.005 76.9386 384.734 77.6946 385.328 78.6666C385.922 79.6386 386.219 80.6646 386.219 81.7446C386.219 84.1746 385.085 85.9836 382.817 87.1716C381.089 88.0896 379.145 88.7106 376.985 89.0346C374.825 89.3586 372.8 89.5206 370.91 89.5206ZM368.642 57.6876C367.346 57.6876 366.212 57.9036 365.24 58.3356C364.322 58.7676 363.566 59.3346 362.972 60.0366C362.378 60.6846 361.919 61.4406 361.595 62.3046C361.325 63.1146 361.163 63.9516 361.109 64.8156L374.96 62.5476C374.798 61.4676 374.204 60.3876 373.178 59.3076C372.152 58.2276 370.64 57.6876 368.642 57.6876Z" fill="#0D3341"/>
<rect x="391" y="93" width="52" height="28" rx="8" fill="#FFC700"/>
<path d="M400.148 113V101.364H404.602C405.443 101.364 406.142 101.496 406.699 101.761C407.259 102.023 407.678 102.381 407.955 102.835C408.235 103.29 408.375 103.805 408.375 104.381C408.375 104.854 408.284 105.259 408.102 105.597C407.92 105.93 407.676 106.201 407.369 106.409C407.062 106.617 406.72 106.767 406.341 106.858V106.972C406.754 106.994 407.15 107.121 407.528 107.352C407.911 107.58 408.223 107.902 408.466 108.318C408.708 108.735 408.83 109.239 408.83 109.83C408.83 110.432 408.684 110.973 408.392 111.455C408.1 111.932 407.661 112.309 407.074 112.585C406.487 112.862 405.748 113 404.858 113H400.148ZM402.256 111.239H404.523C405.288 111.239 405.839 111.093 406.176 110.801C406.517 110.506 406.688 110.127 406.688 109.665C406.688 109.32 406.602 109.009 406.432 108.733C406.261 108.453 406.019 108.233 405.705 108.074C405.39 107.911 405.015 107.83 404.58 107.83H402.256V111.239ZM402.256 106.312H404.341C404.705 106.312 405.032 106.246 405.324 106.114C405.616 105.977 405.845 105.786 406.011 105.54C406.182 105.29 406.267 104.994 406.267 104.653C406.267 104.203 406.108 103.831 405.79 103.54C405.475 103.248 405.008 103.102 404.386 103.102H402.256V106.312ZM414.436 113.17C413.561 113.17 412.805 112.989 412.169 112.625C411.536 112.258 411.05 111.739 410.709 111.068C410.368 110.394 410.197 109.6 410.197 108.688C410.197 107.79 410.368 107.002 410.709 106.324C411.054 105.642 411.535 105.112 412.152 104.733C412.769 104.35 413.495 104.159 414.328 104.159C414.866 104.159 415.374 104.246 415.851 104.42C416.332 104.591 416.756 104.856 417.124 105.216C417.495 105.576 417.786 106.034 417.999 106.591C418.211 107.144 418.317 107.803 418.317 108.568V109.199H411.163V107.812H416.345C416.341 107.419 416.256 107.068 416.089 106.761C415.923 106.451 415.69 106.206 415.391 106.028C415.095 105.85 414.75 105.761 414.357 105.761C413.936 105.761 413.567 105.864 413.249 106.068C412.93 106.269 412.682 106.534 412.504 106.864C412.33 107.189 412.241 107.547 412.237 107.938V109.148C412.237 109.655 412.33 110.091 412.516 110.455C412.701 110.814 412.961 111.091 413.294 111.284C413.627 111.473 414.018 111.568 414.464 111.568C414.764 111.568 415.035 111.527 415.277 111.443C415.519 111.356 415.73 111.229 415.908 111.062C416.086 110.896 416.22 110.689 416.311 110.443L418.232 110.659C418.11 111.167 417.879 111.61 417.538 111.989C417.201 112.364 416.769 112.655 416.243 112.864C415.716 113.068 415.114 113.17 414.436 113.17ZM424.415 104.273V105.864H419.398V104.273H424.415ZM420.636 102.182H422.693V110.375C422.693 110.652 422.735 110.864 422.818 111.011C422.905 111.155 423.019 111.254 423.159 111.307C423.299 111.36 423.455 111.386 423.625 111.386C423.754 111.386 423.871 111.377 423.977 111.358C424.087 111.339 424.17 111.322 424.227 111.307L424.574 112.915C424.464 112.953 424.307 112.994 424.102 113.04C423.902 113.085 423.655 113.112 423.364 113.119C422.848 113.134 422.384 113.057 421.972 112.886C421.559 112.712 421.231 112.443 420.989 112.08C420.75 111.716 420.633 111.261 420.636 110.716V102.182ZM428.646 113.176C428.093 113.176 427.595 113.078 427.152 112.881C426.713 112.68 426.364 112.384 426.107 111.994C425.853 111.604 425.726 111.123 425.726 110.551C425.726 110.059 425.817 109.652 425.999 109.33C426.18 109.008 426.429 108.75 426.743 108.557C427.057 108.364 427.411 108.218 427.805 108.119C428.203 108.017 428.614 107.943 429.038 107.898C429.55 107.845 429.964 107.797 430.283 107.756C430.601 107.71 430.832 107.642 430.976 107.551C431.124 107.456 431.197 107.311 431.197 107.114V107.08C431.197 106.652 431.071 106.32 430.817 106.085C430.563 105.85 430.197 105.733 429.72 105.733C429.216 105.733 428.817 105.843 428.521 106.062C428.23 106.282 428.033 106.542 427.93 106.841L426.01 106.568C426.161 106.038 426.411 105.595 426.76 105.239C427.108 104.879 427.535 104.61 428.038 104.432C428.542 104.25 429.099 104.159 429.709 104.159C430.129 104.159 430.548 104.208 430.964 104.307C431.381 104.405 431.762 104.568 432.107 104.795C432.451 105.019 432.728 105.324 432.936 105.71C433.148 106.097 433.254 106.58 433.254 107.159V113H431.277V111.801H431.209C431.084 112.044 430.908 112.271 430.68 112.483C430.457 112.691 430.175 112.86 429.834 112.989C429.497 113.114 429.101 113.176 428.646 113.176ZM429.18 111.665C429.593 111.665 429.951 111.583 430.254 111.42C430.557 111.254 430.79 111.034 430.953 110.761C431.12 110.489 431.203 110.191 431.203 109.869V108.841C431.139 108.894 431.029 108.943 430.874 108.989C430.722 109.034 430.552 109.074 430.362 109.108C430.173 109.142 429.985 109.172 429.8 109.199C429.614 109.225 429.453 109.248 429.317 109.267C429.01 109.309 428.735 109.377 428.493 109.472C428.25 109.566 428.059 109.699 427.919 109.869C427.779 110.036 427.709 110.252 427.709 110.517C427.709 110.896 427.847 111.182 428.124 111.375C428.4 111.568 428.752 111.665 429.18 111.665Z" fill="white"/>
</svg>
